# xmcd CD database file
#
# Track frame offsets:
#	150
#	17917
#	29177
#	47975
#	72670
#	79605
#	106942
#	118500
#	136650
#	152812
#	175150
#	181552
#	204995
#	234027
#	254445
#	265020
#	278150
#
# Disc length: 4030 seconds
#
# Revision: 2
# Processed by: cddbd v1.5.2PL0 Copyright (c) Steve Scherf et al.
# Submitted via: CDex 1.51
#
DISCID=e20fbc11
DTITLE=Markus Stockhausen - Sol Mestizo
DYEAR=1995
DGENRE=Jazz
TTITLE0=Creation
TTITLE1=Iluminacion
TTITLE2=Lonconao
TTITLE3=Reflexion
TTITLE4=Canto Indio
TTITLE5=Zampona
TTITLE6=Divinidad
TTITLE7=Adentro
TTITLE8=In Your Mind
TTITLE9=Queca
TTITLE10=Desolacion
TTITLE11=Asfalto
TTITLE12=La Conquista
TTITLE13=Yemaye
TTITLE14=Reconciliacion
TTITLE15=Emanacion
TTITLE16=Takirari
EXTD=YEAR: 1995
EXTT0=
EXTT1=
EXTT2=
EXTT3=
EXTT4=
EXTT5=
EXTT6=
EXTT7=
EXTT8=
EXTT9=
EXTT10=
EXTT11=
EXTT12=
EXTT13=
EXTT14=
EXTT15=
EXTT16=
PLAYORDER=
